/* XPM */
static char * Quiz_xpm[] = {
"64 64 156 2",
"  	c #FFFFFF",
". 	c #ECECEC",
"+ 	c #BEBEBE",
"@ 	c #8C8C8C",
"# 	c #5A5A5A",
"$ 	c #2E2E2E",
"% 	c #3D3D3D",
"& 	c #606060",
"* 	c #797979",
"= 	c #AAAAAA",
"- 	c #D5D5D5",
"; 	c #F9F9F9",
"> 	c #FCFCFC",
", 	c #DBDBDB",
"' 	c #A9A9A9",
") 	c #7C7C7C",
"! 	c #262626",
"~ 	c #474747",
"{ 	c #686868",
"] 	c #959595",
"^ 	c #BFBFBF",
"/ 	c #EBEBEB",
"( 	c #A4A4A4",
"_ 	c #E8E8E8",
": 	c #929292",
"< 	c #0D0D0D",
"[ 	c #000000",
"} 	c #A3A3A3",
"| 	c #C2C2C2",
"1 	c #BBBBBB",
"2 	c #8D8D8D",
"3 	c #1C1C1C",
"4 	c #494949",
"5 	c #C0C0C0",
"6 	c #FBFBFB",
"7 	c #D4D4D4",
"8 	c #636363",
"9 	c #9C9C9C",
"0 	c #C5C5C5",
"a 	c #D2D2D2",
"b 	c #C6C6C6",
"c 	c #A2A2A2",
"d 	c #424242",
"e 	c #838383",
"f 	c #ABABAB",
"g 	c #9A9A9A",
"h 	c #F5F5F5",
"i 	c #717171",
"j 	c #787878",
"k 	c #F1F1F1",
"l 	c #A5A5A5",
"m 	c #EAEAEA",
"n 	c #F6F6F6",
"o 	c #9B9B9B",
"p 	c #969696",
"q 	c #AFAFAF",
"r 	c #B1B1B1",
"s 	c #727272",
"t 	c #585858",
"u 	c #F3F3F3",
"v 	c #989898",
"w 	c #656565",
"x 	c #CDCDCD",
"y 	c #878787",
"z 	c #FEFEFE",
"A 	c #323232",
"B 	c #808080",
"C 	c #FDFDFD",
"D 	c #D0D0D0",
"E 	c #B9B9B9",
"F 	c #565656",
"G 	c #F2F2F2",
"H 	c #3B3B3B",
"I 	c #E3E3E3",
"J 	c #B2B2B2",
"K 	c #CBCBCB",
"L 	c #EEEEEE",
"M 	c #222222",
"N 	c #555555",
"O 	c #767676",
"P 	c #F4F4F4",
"Q 	c #5F5F5F",
"R 	c #ACACAC",
"S 	c #DADADA",
"T 	c #EFEFEF",
"U 	c #4B4B4B",
"V 	c #888888",
"W 	c #404040",
"X 	c #CACACA",
"Y 	c #FAFAFA",
"Z 	c #E2E2E2",
"` 	c #D1D1D1",
" .	c #D7D7D7",
"..	c #B6B6B6",
"+.	c #DCDCDC",
"@.	c #CFCFCF",
"#.	c #E4E4E4",
"$.	c #C3C3C3",
"%.	c #A7A7A7",
"&.	c #DFDFDF",
"*.	c #8B8B8B",
"=.	c #F8F8F8",
"-.	c #818181",
";.	c #E5E5E5",
">.	c #858585",
",.	c #828282",
"'.	c #BCBCBC",
").	c #9E9E9E",
"!.	c #F0F0F0",
"~.	c #DDDDDD",
"{.	c #DEDEDE",
"].	c #383838",
"^.	c #E0E0E0",
"/.	c #7E7E7E",
"(.	c #E9E9E9",
"_.	c #B8B8B8",
":.	c #909090",
"<.	c #4D4D4D",
"[.	c #515151",
"}.	c #777777",
"|.	c #2A2A2A",
"1.	c #7A7A7A",
"2.	c #F7F7F7",
"3.	c #626262",
"4.	c #737373",
"5.	c #949494",
"6.	c #898989",
"7.	c #8F8F8F",
"8.	c #C8C8C8",
"9.	c #D8D8D8",
"0.	c #BDBDBD",
"a.	c #A8A8A8",
"b.	c #EDEDED",
"c.	c #E1E1E1",
"d.	c #AEAEAE",
"e.	c #6D6D6D",
"f.	c #9F9F9F",
"g.	c #707070",
"h.	c #E6E6E6",
"i.	c #353535",
"j.	c #C4C4C4",
"k.	c #BABABA",
"l.	c #E7E7E7",
"m.	c #CECECE",
"n.	c #D6D6D6",
"o.	c #C7C7C7",
"p.	c #6C6C6C",
"q.	c #ADADAD",
"r.	c #535353",
"s.	c #7F7F7F",
"t.	c #919191",
"u.	c #6A6A6A",
"v.	c #979797",
"w.	c #C9C9C9",
"x.	c #757575",
"y.	c #B7B7B7",
"                                                                                                                                ",
"                                                                                                                                ",
"                                                                                                                                ",
"                                                                                                                                ",
"                                                                                                                                ",
"                            . + @ # $ % & * = - ;                             > , ' ) # ! ~ { ] ^ /   ( +                       ",
"                        _ : < [ % } | 1 2 3 [ [ 4 5 6                       7 8 [ $ 9 0 a b c d [ [ e 4 f                       ",
"                      5 ! [ [ g h         _ i [ [ [ j k                 > l [ [ # m           n o [ [ [ p                       ",
"                    q [ [ [ r               n s [ [ [ t u               v [ [ w k                 x [ [ )                       ",
"                  0 [ [ [ y z                 / A [ [ [ B C           1 [ [ [ D                     E [ F                       ",
"                G H [ [ [ I                     J [ [ [ [ K         L M [ [ N >                     z e < >                     ",
"                = [ [ [ O                       P ! [ [ [ Q         } [ [ [ R                         S [ T                     ",
"              C U [ [ [ J                         V [ [ [ [ _     C W [ [ [ |                           X Y                     ",
"              Z [ [ [ [ x                         5 [ [ [ [ 0     Z [ [ [ [ 7                                                   ",
"              ` [ [ [ [  .                         .[ [ [ [ ..    D [ [ [ [ +.                                                  ",
"              | [ [ [ [ @.                        #.[ [ [ [ q     $.[ [ [ [ a                                                   ",
"              K [ [ [ [ +                         m [ [ [ [ +     X [ [ [ [ E                                                   ",
"              S [ [ [ [ %.                        &.[ [ [ [ @.    S [ [ [ [ *.                                                  ",
"              h < [ [ [ #                         0 [ [ [ < G     =.M [ [ [ M P                                                 ",
"                -.[ [ [ [ ;.                      >.[ [ [ ,.        *.[ [ [ [ '.                                                ",
"                7 [ [ [ [ ).                    !.< [ [ [ ~.        {.[ [ [ [ ]..                       _ ^.                    ",
"                  /.[ [ [ < (.                  _.[ [ [ o             :.[ [ [ [ s n                   (.<.x                     ",
"                  k [.[ [ [ }.>               / |.[ [ 1.Y             2.i [ [ [ [ 3.#.            2.E |...                      ",
"                    L 4.[ [ [ 5.;           / t [ [ 6.=.                u /.[ [ [ [ [ 7.8.9.x 0.: ! M 0                         ",
"                      6 a.3 [ [ N 5 b.P c.d.$ [ A 0.C                     > 1 d [ [ [ [ [ [ [ [ [ B I                           ",
"                          !.q F [ [ [ [ [ [ e.0 2.                            2.x f.g.N |.# y = #.                              ",
"                                h.q i.[ [ [ j j.G                                                                               ",
"                                    P J i.[ [ [ < y $.m                                                                         ",
"                                        h k.<.[ [ [ [ [ N f.8.l.C               k                                               ",
"                                            6 X * [ [ [ [ [ [ [ $ ) l ^ m.n.o.6.p.                                              ",
"                                                  _ q.~ [ [ [ [ [ [ [ [ [ [ [ d l.                                              ",
"                                                      6 a g H [ [ [ [ [ [ [ [.#.                                                ",
"                                                            6 +._.@ & |.U l h                                                   ",
"                                                                                                                                ",
"                                                                                                                                ",
"                                                                                                                                ",
"            z $ % <.r.N <.].M 3 H r.s.%., z       z $ % <.r.N <.].M 3 H r.s.%., z                                               ",
"              ;.c.t.[ [ [ [ h.!., V [ [ [ s.L       ;.c.t.[ [ [ [ h.!., V [ [ [ s.L                                             ",
"                  $.[ [ [ [ >       ' [ [ [ u.=.        $.[ [ [ [ >       ' [ [ [ u.=.                                          ",
"                  b [ [ [ [ >       > e.[ [ [ v.        b [ [ [ [ >       > e.[ [ [ v.                                          ",
"                  8.[ [ [ [ >         k.[ [ [ < G       8.[ [ [ [ >         k.[ [ [ < G                                         ",
"                  w.[ [ [ [ >         D [ [ [ [ ,       w.[ [ [ [ >         D [ [ [ [ ,                                         ",
"                  X [ [ [ [ >         @.[ [ [ [ -       X [ [ [ [ >         @.[ [ [ [ -                                         ",
"                  X [ [ [ [ >         + [ [ [ [ _       X [ [ [ [ >         + [ [ [ [ _                                         ",
"                  K [ [ [ [ >         s [ [ [ x.        K [ [ [ [ >         s [ [ [ x.                                          ",
"                  K [ [ [ [ >       y.[ [ [ ~ L         K [ [ [ [ >       y.[ [ [ ~ L                                           ",
"                  X [ [ [ [ L 6 L } [ [ [ i Z           X [ [ [ [ L 6 L } [ [ [ i Z                                             ",
"                  w.[ [ [ [ [ [ [ ].i 5.- z             w.[ [ [ [ [ [ [ ].i 5.- z                                               ",
"                  8.[ [ [ [ Y ; 2.                      8.[ [ [ [ Y ; 2.                                                        ",
"                  b [ [ [ [ >                           b [ [ [ [ >                                                             ",
"                  0 [ [ [ [ 6                           0 [ [ [ [ 6                                                             ",
"                  $.[ [ [ [ 6                           $.[ [ [ [ 6                                                             ",
"                  5 [ [ [ [ ;                           5 [ [ [ [ ;                                                             ",
"                  0.[ [ [ [ =.                          0.[ [ [ [ =.                                                            ",
"                  _.[ [ [ [ h                           _.[ [ [ [ h                                                             ",
"              b.c.O [ [ [ [ 1 ;.!.                  b.c.O [ [ [ [ 1 ;.!.                                                        ",
"              B A W 4 <.U ~ % $ o                   B A W 4 <.U ~ % $ o                                                         ",
"                                                                                                                                ",
"                                                                                                                                ",
"                                                                                                                                ",
"                                                                                                                                ",
"                                                                                                                                ",
"                                                                                                                                ",
"                                                                                                                                "};
